<svg aria-hidden="true" style="position: absolute; width: 0; height: 0; overflow: hidden;" version="1.1" xmlns="http://www.w3.org/2000/svg" xmlns:xlink="http://www.w3.org/1999/xlink">
<defs>
<symbol id="icon-yr_krolik_1min" viewBox="0 0 32 32">
<path fill="#d5ac5f" style="fill: var(--color1, #d5ac5f)" d="M25.081 23.343c0.564-1.693 0.339-2.653-1.783-5.463-2.122-2.799-3.917-2.574-4.639-2.743s-3.499-0.813-4.639-2.077-0.903-1.061-0.869-1.343c0.034-0.271-0.068-1.129-0.135-1.343s0.034-0.598 0.643-0.869c0.61-0.271 3.059-1.038 4.165-3.014 0.734-1.298 0.463-1.456 0.102-1.411s-1.321 0.26-1.546 0.339c-0.102-0.632-0.192-0.677-0.474-0.734-0.282-0.068-1.874 0.237-3.296 2.212-0.553 0.779-1.016 1.422-1.377 1.479s-1.276 0.169-1.546 0.271c-0.271 0.102-0.869-0.102-1.445 0.666s-2.020 2.483-2.020 2.483c-0.113 0.26 0.034 0.926 0.203 1.14s0.835 0.643 1.343 0.903 0.835 0.666 0.869 1.072c0.045 0.406-0.056 1.998 0.034 2.517 0.090 0.508 0.451 1.242 0.745 1.704s0.395 0.948 0.508 1.276c0.102 0.327 1.659 1.659 2.054 2.111s0.406 0.463 0.271 0.937-0.214 1.388-0.373 1.637c-0.147 0.26-0.542 0.847-0.971 0.971s-0.982 0.451-1.038 0.632 0.339 0.293 0.711 0.305c0.373 0 0.248 0.395 1.208 0.237 0.971-0.158 1.456-0.429 2.020-1.174s0.61-1.535 1.479-1.343c0.869 0.203 1.321 0.463 1.377 0.632 0.068 0.237-0.203 0.598-0.203 0.598s-0.519 0.068-0.971 0.372c-0.429 0.282-0.779 0.813-0.373 0.937 0.418 0.124 8.262 0.011 9.448-0.068s1.4-1.355 1.005-1.806-0.542-0.61-0.835-0.598c-0.293-0.011 0.135-0.801 0.35-1.445zM9.425 9.944c0.542 0.316 0.7 0.779-0.056 0.756-0.056 0-0.124 0-0.181 0.011-0.937 0.192-0.734-0.756 0.045-0.813 0.079 0 0.135 0.023 0.192 0.045z"></path>
</symbol>
<symbol id="icon-yr_roslina_2min" viewBox="0 0 18 32">
<path fill="#d5ac5f" style="fill: var(--color1, #d5ac5f)" d="M16.35 5.938c0.127-0.016 0.271-0.032 0.398-0.127-0.557-1.083-2.595 0.303-3.296 0.048 0.35-0.573 2.388-0.589 2.117-1.512-0.271-0.876-1.958 0.732-2.356 0.86 0.223-0.525 0.732-0.796 0.716-1.385-0.048-0.939-0.621-0.398-1.035 0.064-0.032-0.366-0.111-1.083-0.605-1.067-0.732-0.016-0.589 0.923-0.685 1.337-0.191-0.159-0.239-0.605-0.398-0.828-0.159-0.255-0.382-0.637-0.621-0.844-0.287-0.191-0.987-0.318-1.019 0.143-0.334-0.239-1.321-0.589-1.305 0.032 0.048 0.541 0.621 0.844 0.844 1.274-0.35-0.334-0.621-0.748-1.083-0.892-0.271-0.064-1.146-0.159-1.258 0.175-0.271 0.525 1.21 1.242 1.497 1.433 0.239 0.207 0.223 0.43 0.509 0.621 0.334 0.239 0.828 0.191 1.13 0.43 0.239 0.159 0.366 0.509 0.525 0.764 0.207 0.334 0.509 0.621 0.732 0.971l-1.258 2.022c-0.032-0.334 0-0.748-0.080-1.067-0.096-0.35-0.446-0.621-0.685-0.876-0.127-0.127-0.271-0.382-0.446-0.43-0.016 0.35-0.239 0.637-0.175 0.987 0.064 0.366 0.35 0.748 0.573 1.019 0.191 0.207 0.557 0.494 0.605 0.78 0.064 0.334-0.43 0.876-0.589 1.13-0.494 0.812-0.732 1.178-1.226 2.006-0.398 0.669-1.974 3.264-2.404 4.33-0.318 0.796-1.417 3.041-1.942 4.999-0.509 1.942-1.019 5.095-1.465 7.642 0.398-0.016 0.318 0.446 0.732 0.446 0.159 0 0.462-5.636 1.114-8.056 0.637-2.42 1.481-3.964 1.767-4.697 0.478-1.321 1.242-2.499 2.022-3.662 0.255-0.382 0.509-1.019 0.971-1.162 0.494-0.143 1.226 0.271 1.624 0.509 1.114 0.669 2.086 0.78 3.311 0.716-0.255-0.080-0.43-0.255-0.653-0.414-0.541-0.382-1.067-0.669-1.64-0.987-0.987-0.557-1.56-0.255-2.691-0.239 0.175-0.621 2.547-4.665 3.152-4.951 0.35-0.175 0.621-0.191 0.907-0.398 0.334-0.255 0.509-0.414 0.907-0.446 0.621-0.064 1.337-0.223 1.974-0.096 0.239 0.064 0.573 0.303 0.828 0.143-0.048 0 0.191-0.382 0.191-0.382 0-0.159-0.143-0.287-0.239-0.366z"></path>
</symbol>
<symbol id="icon-yr_roslina_3min" viewBox="0 0 6 32">
<path fill="#d5ac5f" style="fill: var(--color1, #d5ac5f)" d="M4.529 2.428c-0.376 0.111-0.758 0.292-1.078 0.508-0.104 0.063-0.209 0.125-0.271 0.223-0.035 0.070-0.056 0.139-0.090 0.202-0.083 0.16-0.209 0.292-0.306 0.431 0.042-0.181 0.056-0.348 0.111-0.529 0.090-0.264 0.188-0.55 0.306-0.8 0.070-0.139 0.174-0.243 0.243-0.39 0.070-0.125 0.146-0.271 0.216-0.41 0.070-0.125 0.132-0.243 0.16-0.397 0.042-0.181 0.174-0.383 0.188-0.563-0.063 0.063-0.083 0.16-0.132 0.243-0.083 0.146-0.23 0.25-0.355 0.355-0.306 0.257-0.487 0.557-0.473 0.953-0.007 0.111-0.007 0.23-0.028 0.341-0.056 0.181-0.125 0.515-0.278 0.647-0.063-0.077-0.056-0.39-0.042-0.501 0.021-0.376 0.16-0.751 0.188-1.127s-0.299-0.64-0.591-0.814c0.028 0.146 0.063 0.292 0.035 0.445-0.014 0.097-0.063 0.195-0.056 0.292 0.007 0.111 0.028 0.285 0.139 0.487 0.049 0.097 0.188 0.195 0.209 0.306 0.021 0.104 0.014 0.431-0.014 0.48-0.056-0.021-0.111-0.153-0.153-0.202-0.070-0.097-0.139-0.188-0.209-0.278-0.118-0.16-0.104-0.285-0.23-0.536-0.097-0.188-0.243-0.403-0.452-0.48-0.223-0.077-0.452-0.077-0.717-0.23 0.153 0.223 0.216 0.341 0.313 0.48 0.077 0.146 0.181 0.216 0.299 0.334 0.39 0.383 0.487 0.306 0.71 0.508 0.25 0.237 0.32 0.452 0.348 0.807 0.035 0.417 0 0.89-0.077 1.301-0.195 1.057-0.327 1.955-0.417 3.374-0.007 0-0.014 0.007-0.014 0.007h0.014c-0.014 0.174-0.021 0.348-0.028 0.536-0.077 1.586-0.097 4.223-0.049 6.859l-0.014 0.083c0.007-0.014 0.007-0.035 0.014-0.056 0.042 2.094 0.125 4.188 0.257 5.746 0.042 0.515 0.167 1.468 0.313 2.602-0.021-0.077-0.049-0.153-0.077-0.243-0.104-0.306-0.264-0.577-0.369-0.87-0.139-0.369-0.021-0.793-0.278-1.127-0.125-0.167-0.341-0.209-0.501-0.299-0.132-0.083-0.243-0.188-0.327-0.313-0.049-0.077-0.056-0.174-0.097-0.237-0.083 0.856 0.744 1.468 1.113 2.177 0.125 0.237 0.278 0.508 0.369 0.779 0.111 0.376 0.25 0.71 0.299 1.134v-0.028c0.376 2.741 0.842 6.003 0.877 6.623 0.035-0.028 0.090-0.049 0.167-0.063 0.014-0.619-0.793-5.565-0.863-6.365-0.216-2.33-0.466-4.563-0.647-6.79l0.007 0.014c0.139-0.285 0.494-0.313 0.793-0.334 0.285-0.021 0.473-0.021 0.689-0.243 0.278-0.264 0.563-0.48 0.877-0.696-0.48-0.014-0.988 0.090-1.426 0.285-0.285 0.132-0.87 0.424-0.953 0.807-0.007-0.111-0.021-0.216-0.028-0.327-0.035-0.438-0.056-1.412-0.070-2.567 0.049-0.104 0.104-0.202 0.174-0.257 0.132-0.077 0.32-0.090 0.452-0.16 0.188-0.070 0.341-0.16 0.501-0.271 0.341-0.202 0.32-0.424 0.306-0.786-0.007-0.125-0.007-0.23 0.083-0.334 0.139-0.174 0.41-0.32 0.612-0.403-0.452 0.146-0.939 0.070-1.391 0.202-0.403 0.111-0.633 0.473-0.723 0.863-0.007 0.042-0.014 0.077-0.021 0.118-0.014-2.358 0-5.009 0.014-5.44 0.014-0.237 0.028-0.466 0.042-0.689 0.063-0.077 0.118-0.202 0.16-0.257 0.097-0.146 0.188-0.397 0.341-0.508 0.139-0.104 0.32 0.070 0.473 0.125 0.403 0.132 0.772-0.077 1.162-0.16 0.438-0.118 0.821 0.042 1.169 0.306 0.014-0.209-0.334-0.424-0.48-0.522-0.174-0.139-0.362-0.243-0.57-0.327-0.459-0.153-0.932 0.056-1.37 0.202-0.264 0.090-0.494 0.188-0.661 0.431-0.077 0.104-0.153 0.237-0.209 0.376 0.146-1.83 0.397-2.95 0.48-3.221 0.097-0.334 0.473-0.626 0.8-0.73 0.25-0.104 0.515-0.23 0.703-0.452 0.223-0.278 0.348-0.598 0.723-0.71-0.097 0.035-0.209 0.028-0.313 0.049zM2.073 14.581c0 0.035-0.007 0.070-0.014 0.104 0-0.125 0-0.257-0.007-0.39 0.007 0.090 0.014 0.188 0.021 0.285z"></path>
</symbol>
<symbol id="icon-yr_roslina_4min" viewBox="0 0 16 32">
<path fill="#d5ac5f" style="fill: var(--color1, #d5ac5f)" d="M8.061 2.3c-0.211 0.074-0.422 0.222-0.496 0.443-0.032-0.39-0.021-0.601-0.348-0.833-0.285-0.2-0.633-0.317-0.992-0.253 0.369 0.38 0.865 0.654 1.076 1.15 0.2 0.475 0.496 1.678 0.591 2.184 0.116 0.675 0.158 1.35 0.232 2.036-0.295-0.158-0.96 0.042-1.161 0.222-0.317 0.285 0 0.422-0.011 0.728-0.401-0.084-0.591-0.338-0.907-0.591-0.137-0.127-0.433-0.232-0.179-0.39 0.169-0.084 0.454 0.021 0.612 0.063 0.369 0.032 0.422-0.19 0.095-0.348-0.222-0.084-0.464-0.264-0.686-0.317-0.19-0.095-0.433-0.053-0.454 0.19-0.011 0.148 0.158 0.243 0.148 0.369-0.222-0.053-0.791-0.274-0.95-0.485-0.158-0.243 0.032-0.58-0.19-0.876-0.222-0.243-0.707-0.496-0.696 0.011 0.021 0.359 0.285 0.496 0.454 0.802-0.317-0.137-0.644-0.264-0.897-0.528-0.285-0.285-0.549-0.253-0.939-0.19-0.327 0.053-0.559 0.116-0.802 0.306-0.19 0.148-0.496 0.496-0.549 0.749 0.475-0.042 1.097-0.317 1.593-0.211 0.528 0.106 0.053 0.359-0.137 0.506-0.264 0.285-0.686 1.456-0.454 1.815 0.243-0.222 0.528-0.295 0.812-0.422 0.369-0.179 0.538-0.411 0.791-0.728 0.095-0.137 0.232-0.243 0.369-0.39 0.106-0.106 0.19-0.327 0.327-0.411 0.137-0.116 0.433-0.158 0.496 0.074-0.338 0.38-0.781 0.39-0.907 1.013-0.053 0.253 0.042 1.055 0.295 1.161 0.19-0.411 0.739-0.475 1.118-0.623 0.19-0.074 0.38-0.137 0.475-0.327 0.042-0.105 0.116-0.601 0.021-0.686 0.169 0.137 0.865 0.696 1.066 0.865-0.57 0.021-0.623 0.369-0.517 0.844 0.053 0.232 0.211 0.855 0.517 0.865 0.084-0.433 0.422-0.612 0.612-0.971 0.306 0.253 0.411 0.907 0.475 1.319 0.074 0.475 0.148 1.002 0.106 1.519-0.042 0.728-0.084 1.456-0.148 2.195-0.021 0.454-0.042 0.907-0.127 1.35-0.095 0.38-0.253 0.728-0.348 1.108l0.675 0.475c0.021-0.095 0-0.179 0.021-0.243 0.179-1.414 0.2-2.838 0.359-4.252 0.105-1.129 0.179-2.226 0.063-3.355-0.095-0.844-0.148-1.688-0.232-2.532-0.053-0.58-0.116-1.161-0.2-1.741-0.063-0.443-0.19-0.876-0.274-1.308-0.053-0.264-0.2-0.675 0.042-0.876 0.179-0.148 0.485-0.295 0.717-0.264-0.011-0.232-0.38-0.274-0.559-0.211zM8.272 8.135c0.011 0.274 0.021 0.57 0.011 0.844-0.021 0.243 0.032 0.601-0.084 0.823 0.084-0.158-0.19-0.58-0.274-0.717-0.169-0.232-0.38-0.422-0.517-0.675-0.116-0.222-0.19-0.295 0.032-0.401 0.211-0.095 0.496-0.116 0.686-0.274 0.032-0.021 0.063-0.063 0.084-0.095 0.042 0.338 0.032 0.2 0-0.011 0-0.011 0.011-0.011 0.011-0.021 0.011 0.179 0.021 0.359 0.053 0.528z"></path>
<path fill="#d5ac5f" style="fill: var(--color1, #d5ac5f)" d="M6.953 16.501c0.232-0.032 0.538 0.116 0.717 0.264 0.243 0.2 0.095 0.612 0.042 0.876-0.084 0.433-0.211 0.865-0.274 1.308-0.084 0.58-0.148 1.161-0.2 1.741-0.084 0.844-0.127 1.688-0.232 2.532-0.106 1.129-0.032 2.226 0.063 3.355 0.148 1.414 0.179 2.828 0.359 4.252 0.021 0.063 0.011 0.148 0.021 0.243l0.675-0.475c-0.095-0.38-0.253-0.728-0.348-1.108-0.084-0.433-0.106-0.886-0.127-1.35-0.074-0.739-0.106-1.467-0.148-2.195-0.042-0.517 0.042-1.055 0.106-1.519 0.063-0.411 0.158-1.066 0.475-1.319 0.19 0.359 0.528 0.528 0.612 0.971 0.317-0.011 0.464-0.633 0.517-0.865 0.105-0.464 0.053-0.823-0.517-0.844 0.2-0.169 0.886-0.728 1.066-0.865-0.095 0.074-0.021 0.58 0.021 0.686 0.084 0.19 0.285 0.253 0.475 0.327 0.38 0.137 0.928 0.211 1.118 0.622 0.253-0.116 0.348-0.918 0.295-1.161-0.116-0.622-0.57-0.633-0.907-1.013 0.063-0.232 0.359-0.19 0.496-0.074 0.137 0.084 0.222 0.306 0.327 0.411 0.127 0.137 0.264 0.253 0.369 0.39 0.253 0.306 0.433 0.549 0.791 0.728 0.285 0.137 0.57 0.211 0.812 0.422 0.232-0.359-0.19-1.54-0.454-1.815-0.19-0.148-0.665-0.401-0.137-0.506 0.496-0.105 1.118 0.169 1.593 0.211-0.053-0.253-0.359-0.601-0.549-0.749-0.243-0.19-0.475-0.253-0.802-0.306-0.38-0.053-0.654-0.095-0.939 0.19-0.253 0.264-0.57 0.401-0.897 0.528 0.169-0.306 0.433-0.443 0.454-0.802 0.021-0.506-0.475-0.253-0.696-0.011-0.222 0.295-0.032 0.633-0.19 0.876-0.158 0.222-0.728 0.433-0.95 0.485-0.011-0.127 0.158-0.222 0.148-0.369-0.021-0.243-0.264-0.285-0.454-0.19-0.222 0.053-0.454 0.232-0.686 0.317-0.327 0.158-0.264 0.38 0.095 0.348 0.158-0.032 0.443-0.148 0.612-0.063 0.243 0.158-0.042 0.264-0.179 0.39-0.306 0.253-0.496 0.496-0.907 0.591-0.011-0.306 0.306-0.433-0.011-0.728-0.2-0.179-0.865-0.38-1.161-0.222 0.074-0.675 0.116-1.361 0.232-2.036 0.095-0.517 0.39-1.709 0.591-2.184 0.211-0.506 0.696-0.781 1.076-1.15-0.348-0.053-0.696 0.063-0.992 0.253-0.338 0.232-0.327 0.443-0.348 0.834-0.074-0.222-0.285-0.369-0.496-0.443-0.158-0.063-0.528-0.011-0.559 0.211zM7.396 21.597c0 0.011 0.011 0.011 0.011 0.021-0.021 0.211-0.032 0.338 0 0.011 0.021 0.042 0.053 0.074 0.084 0.095 0.179 0.158 0.464 0.169 0.686 0.274s0.148 0.179 0.032 0.401c-0.137 0.253-0.359 0.443-0.517 0.675-0.095 0.127-0.359 0.559-0.274 0.717-0.116-0.232-0.063-0.58-0.084-0.823-0.021-0.274 0-0.57 0.011-0.844 0.011-0.169 0.032-0.348 0.053-0.528z"></path>
</symbol>
</defs>
</svg>
