<?xml version="1.0" encoding="utf-8"?>
<!-- Generator: Adobe Illustrator 24.3.0, SVG Export Plug-In . SVG Version: 6.00 Build 0)  -->
<svg version="1.1" id="Calque_1" xmlns="http://www.w3.org/2000/svg" xmlns:xlink="http://www.w3.org/1999/xlink" x="0px" y="0px"
	 viewBox="0 0 283.5 283.5" style="enable-background:new 0 0 283.5 283.5;" xml:space="preserve">
<style type="text/css">
	.st0{fill-rule:evenodd;clip-rule:evenodd;fill:#D5AC5F;}
</style>
<g>
	<path class="st0" d="M222.2,206.8c5-15,3-23.5-15.8-48.4c-18.8-24.8-34.7-22.8-41.1-24.3s-31-7.2-41.1-18.4s-8-9.4-7.7-11.9
		c0.3-2.4-0.6-10-1.2-11.9c-0.6-1.9,0.3-5.3,5.7-7.7c5.4-2.4,27.1-9.2,36.9-26.7c6.5-11.5,4.1-12.9,0.9-12.5
		c-3.2,0.4-11.7,2.3-13.7,3c-0.9-5.6-1.7-6-4.2-6.5c-2.5-0.6-16.6,2.1-29.2,19.6c-4.9,6.9-9,12.6-12.2,13.1
		c-3.2,0.5-11.3,1.5-13.7,2.4c-2.4,0.9-7.7-0.9-12.8,5.9s-17.9,22-17.9,22c-1,2.3,0.3,8.2,1.8,10.1c1.5,1.9,7.4,5.7,11.9,8
		c4.5,2.3,7.4,5.9,7.7,9.5c0.4,3.6-0.5,17.7,0.3,22.3c0.8,4.5,4,11,6.6,15.1c2.6,4.1,3.5,8.4,4.5,11.3c0.9,2.9,14.7,14.7,18.2,18.7
		c3.5,4,3.6,4.1,2.4,8.3s-1.9,12.3-3.3,14.5c-1.3,2.3-4.8,7.5-8.6,8.6c-3.8,1.1-8.7,4-9.2,5.6s3,2.6,6.3,2.7c3.3,0,2.2,3.5,10.7,2.1
		c8.6-1.4,12.9-3.8,17.9-10.4s5.4-13.6,13.1-11.9c7.7,1.8,11.7,4.1,12.2,5.6c0.6,2.1-1.8,5.3-1.8,5.3s-4.6,0.6-8.6,3.3
		c-3.8,2.5-6.9,7.2-3.3,8.3c3.7,1.1,73.2,0.1,83.7-0.6c10.5-0.7,12.4-12,8.9-16c-3.5-4-4.8-5.4-7.4-5.3
		C216.5,219.5,220.3,212.5,222.2,206.8z M83.5,88.1c4.8,2.8,6.2,6.9-0.5,6.7c-0.5,0-1.1,0-1.6,0.1c-8.3,1.7-6.5-6.7,0.4-7.2
		C82.5,87.7,83,87.9,83.5,88.1z"/>
</g>
</svg>
