<?xml version="1.0" encoding="utf-8"?>
<!-- Generator: Adobe Illustrator 24.3.0, SVG Export Plug-In . SVG Version: 6.00 Build 0)  -->
<svg version="1.1" id="Layer_9" xmlns="http://www.w3.org/2000/svg" xmlns:xlink="http://www.w3.org/1999/xlink" x="0px" y="0px"
	 viewBox="0 0 115 201" style="enable-background:new 0 0 115 201;" xml:space="preserve">
<style type="text/css">
	.st0{fill:#D5AC5F;}
</style>
<path class="st0" d="M102.7,37.3c0.8-0.1,1.7-0.2,2.5-0.8c-3.5-6.8-16.3,1.9-20.7,0.3c2.2-3.6,15-3.7,13.3-9.5
	c-1.7-5.5-12.3,4.6-14.8,5.4c1.4-3.3,4.6-5,4.5-8.7c-0.3-5.9-3.9-2.5-6.5,0.4c-0.2-2.3-0.7-6.8-3.8-6.7c-4.6-0.1-3.7,5.8-4.3,8.4
	c-1.2-1-1.5-3.8-2.5-5.2c-1-1.6-2.4-4-3.9-5.3c-1.8-1.2-6.2-2-6.4,0.9c-2.1-1.5-8.3-3.7-8.2,0.2c0.3,3.4,3.9,5.3,5.3,8
	c-2.2-2.1-3.9-4.7-6.8-5.6c-1.7-0.4-7.2-1-7.9,1.1c-1.7,3.3,7.6,7.8,9.4,9c1.5,1.3,1.4,2.7,3.2,3.9c2.1,1.5,5.2,1.2,7.1,2.7
	c1.5,1,2.3,3.2,3.3,4.8c1.3,2.1,3.2,3.9,4.6,6.1l-7.9,12.7c-0.2-2.1,0-4.7-0.5-6.7c-0.6-2.2-2.8-3.9-4.3-5.5
	c-0.8-0.8-1.7-2.4-2.8-2.7c-0.1,2.2-1.5,4-1.1,6.2c0.4,2.3,2.2,4.7,3.6,6.4c1.2,1.3,3.5,3.1,3.8,4.9c0.4,2.1-2.7,5.5-3.7,7.1
	c-3.1,5.1-4.6,7.4-7.7,12.6c-2.5,4.2-12.4,20.5-15.1,27.2c-2,5-8.9,19.1-12.2,31.4c-3.2,12.2-6.4,32-9.2,48c2.5-0.1,2,2.8,4.6,2.8
	c1,0,2.9-35.4,7-50.6c4-15.2,9.3-24.9,11.1-29.5c3-8.3,7.8-15.7,12.7-23c1.6-2.4,3.2-6.4,6.1-7.3c3.1-0.9,7.7,1.7,10.2,3.2
	c7,4.2,13.1,4.9,20.8,4.5c-1.6-0.5-2.7-1.6-4.1-2.6c-3.4-2.4-6.7-4.2-10.3-6.2c-6.2-3.5-9.8-1.6-16.9-1.5c1.1-3.9,16-29.3,19.8-31.1
	c2.2-1.1,3.9-1.2,5.7-2.5c2.1-1.6,3.2-2.6,5.7-2.8c3.9-0.4,8.4-1.4,12.4-0.6c1.5,0.4,3.6,1.9,5.2,0.9c-0.3,0,1.2-2.4,1.2-2.4
	C104.2,38.6,103.3,37.8,102.7,37.3z"/>
</svg>
