<?xml version="1.0" encoding="utf-8"?>
<!-- Generator: Adobe Illustrator 24.3.0, SVG Export Plug-In . SVG Version: 6.00 Build 0)  -->
<svg version="1.1" id="Layer_9" xmlns="http://www.w3.org/2000/svg" xmlns:xlink="http://www.w3.org/1999/xlink" x="0px" y="0px"
	 viewBox="0 0 148 303.3" style="enable-background:new 0 0 148 303.3;" xml:space="preserve">
<style type="text/css">
	.st0{fill:#D5AC5F;}
</style>
<g>
	<g>
		<path class="st0" d="M76.4,21.8c-2,0.7-4,2.1-4.7,4.2c-0.3-3.7-0.2-5.7-3.3-7.9c-2.7-1.9-6-3-9.4-2.4c3.5,3.6,8.2,6.2,10.2,10.9
			c1.9,4.5,4.7,15.9,5.6,20.7c1.1,6.4,1.5,12.8,2.2,19.3c-2.8-1.5-9.1,0.4-11,2.1c-3,2.7,0,4-0.1,6.9c-3.8-0.8-5.6-3.2-8.6-5.6
			c-1.3-1.2-4.1-2.2-1.7-3.7c1.6-0.8,4.3,0.2,5.8,0.6c3.5,0.3,4-1.8,0.9-3.3c-2.1-0.8-4.4-2.5-6.5-3c-1.8-0.9-4.1-0.5-4.3,1.8
			c-0.1,1.4,1.5,2.3,1.4,3.5c-2.1-0.5-7.5-2.6-9-4.6c-1.5-2.3,0.3-5.5-1.8-8.3c-2.1-2.3-6.7-4.7-6.6,0.1c0.2,3.4,2.7,4.7,4.3,7.6
			c-3-1.3-6.1-2.5-8.5-5c-2.7-2.7-5.2-2.4-8.9-1.8c-3.1,0.5-5.3,1.1-7.6,2.9c-1.8,1.4-4.7,4.7-5.2,7.1c4.5-0.4,10.4-3,15.1-2
			c5,1,0.5,3.4-1.3,4.8c-2.5,2.7-6.5,13.8-4.3,17.2c2.3-2.1,5-2.8,7.7-4c3.5-1.7,5.1-3.9,7.5-6.9c0.9-1.3,2.2-2.3,3.5-3.7
			c1-1,1.8-3.1,3.1-3.9c1.3-1.1,4.1-1.5,4.7,0.7c-3.2,3.6-7.4,3.7-8.6,9.6c-0.5,2.4,0.4,10,2.8,11c1.8-3.9,7-4.5,10.6-5.9
			c1.8-0.7,3.6-1.3,4.5-3.1c0.4-1,1.1-5.7,0.2-6.5c1.6,1.3,8.2,6.6,10.1,8.2c-5.4,0.2-5.9,3.5-4.9,8c0.5,2.2,2,8.1,4.9,8.2
			c0.8-4.1,4-5.8,5.8-9.2c2.9,2.4,3.9,8.6,4.5,12.5c0.7,4.5,1.4,9.5,1,14.4c-0.4,6.9-0.8,13.8-1.4,20.8c-0.2,4.3-0.4,8.6-1.2,12.8
			c-0.9,3.6-2.4,6.9-3.3,10.5l6.4,4.5c0.2-0.9,0-1.7,0.2-2.3c1.7-13.4,1.9-26.9,3.4-40.3c1-10.7,1.7-21.1,0.6-31.8
			c-0.9-8-1.4-16-2.2-24c-0.5-5.5-1.1-11-1.9-16.5c-0.6-4.2-1.8-8.3-2.6-12.4c-0.5-2.5-1.9-6.4,0.4-8.3c1.7-1.4,4.6-2.8,6.8-2.5
			C81.6,21.6,78.1,21.2,76.4,21.8z M78.4,77.1c0.1,2.6,0.2,5.4,0.1,8c-0.2,2.3,0.3,5.7-0.8,7.8c0.8-1.5-1.8-5.5-2.6-6.8
			c-1.6-2.2-3.6-4-4.9-6.4c-1.1-2.1-1.8-2.8,0.3-3.8c2-0.9,4.7-1.1,6.5-2.6c0.3-0.2,0.6-0.6,0.8-0.9c0.4,3.2,0.3,1.9,0-0.1
			c0-0.1,0.1-0.1,0.1-0.2C78,73.8,78.1,75.5,78.4,77.1z"/>
	</g>
	<g>
		<path class="st0" d="M65.9,156.4c2.2-0.3,5.1,1.1,6.8,2.5c2.3,1.9,0.9,5.8,0.4,8.3c-0.8,4.1-2,8.2-2.6,12.4
			c-0.8,5.5-1.4,11-1.9,16.5c-0.8,8-1.2,16-2.2,24c-1,10.7-0.3,21.1,0.6,31.8c1.4,13.4,1.7,26.8,3.4,40.3c0.2,0.6,0.1,1.4,0.2,2.3
			l6.4-4.5c-0.9-3.6-2.4-6.9-3.3-10.5c-0.8-4.1-1-8.4-1.2-12.8c-0.7-7-1-13.9-1.4-20.8c-0.4-4.9,0.4-10,1-14.4
			c0.6-3.9,1.5-10.1,4.5-12.5c1.8,3.4,5,5,5.8,9.2c3-0.1,4.4-6,4.9-8.2c1-4.4,0.5-7.8-4.9-8c1.9-1.6,8.4-6.9,10.1-8.2
			c-0.9,0.7-0.2,5.5,0.2,6.5c0.8,1.8,2.7,2.4,4.5,3.1c3.6,1.3,8.8,2,10.6,5.9c2.4-1.1,3.3-8.7,2.8-11c-1.1-5.9-5.4-6-8.6-9.6
			c0.6-2.2,3.4-1.8,4.7-0.7c1.3,0.8,2.1,2.9,3.1,3.9c1.2,1.3,2.5,2.4,3.5,3.7c2.4,2.9,4.1,5.2,7.5,6.9c2.7,1.3,5.4,2,7.7,4
			c2.2-3.4-1.8-14.6-4.3-17.2c-1.8-1.4-6.3-3.8-1.3-4.8c4.7-1,10.6,1.6,15.1,2c-0.5-2.4-3.4-5.7-5.2-7.1c-2.3-1.8-4.5-2.4-7.6-2.9
			c-3.6-0.5-6.2-0.9-8.9,1.8c-2.4,2.5-5.4,3.8-8.5,5c1.6-2.9,4.1-4.2,4.3-7.6c0.2-4.8-4.5-2.4-6.6-0.1c-2.1,2.8-0.3,6-1.8,8.3
			c-1.5,2.1-6.9,4.1-9,4.6c-0.1-1.2,1.5-2.1,1.4-3.5c-0.2-2.3-2.5-2.7-4.3-1.8c-2.1,0.5-4.3,2.2-6.5,3c-3.1,1.5-2.5,3.6,0.9,3.3
			c1.5-0.3,4.2-1.4,5.8-0.6c2.3,1.5-0.4,2.5-1.7,3.7c-2.9,2.4-4.7,4.7-8.6,5.6c-0.1-2.9,2.9-4.1-0.1-6.9c-1.9-1.7-8.2-3.6-11-2.1
			c0.7-6.4,1.1-12.9,2.2-19.3c0.9-4.9,3.7-16.2,5.6-20.7c2-4.8,6.6-7.4,10.2-10.9c-3.3-0.5-6.6,0.6-9.4,2.4
			c-3.2,2.2-3.1,4.2-3.3,7.9c-0.7-2.1-2.7-3.5-4.7-4.2C69.7,153.8,66.2,154.3,65.9,156.4z M70.1,204.7c0,0.1,0.1,0.1,0.1,0.2
			c-0.2,2-0.3,3.2,0,0.1c0.2,0.4,0.5,0.7,0.8,0.9c1.7,1.5,4.4,1.6,6.5,2.6c2.1,1,1.4,1.7,0.3,3.8c-1.3,2.4-3.4,4.2-4.9,6.4
			c-0.9,1.2-3.4,5.3-2.6,6.8c-1.1-2.2-0.6-5.5-0.8-7.8c-0.2-2.6,0-5.4,0.1-8C69.7,208.1,69.9,206.4,70.1,204.7z"/>
	</g>
</g>
</svg>
